<svg xmlns="http://www.w3.org/2000/svg" width="16" height="16" fill="red" viewBox="0 0 16 16">
  <path d="M5.5 5.5a.5.5 0 0 1 .5-.5h4a.5.5 0 0 1 0 1h-4a.5.5 0 0 1-.5-.5zm.5 2a.5.5 0 0 1 .5-.5h3a.5.5 0 0 1 0 1h-3a.5.5 0 0 1-.5-.5zm.5 2a.5.5 0 0 1 .5-.5h3a.5.5 0 0 1 0 1h-3a.5.5 0 0 1-.5-.5z"/>
  <path fill-rule="evenodd" d="M14.5 3a1 1 0 0 1-1 1H13v9a2 2 0 0 1-2 2H5a2 2 0 0 1-2-2V4h-.5a1 1 0 0 1 0-2h3.086a1 1 0 0 1 .707.293l.707.707H9.707l.707-.707a1 1 0 0 1 .707-.293H13.5a1 1 0 0 1 1 1zM4.118 4L4 4.059V13a1 1 0 0 0 1 1h6a1 1 0 0 0 1-1V4.059L11.882 4H4.118zM2.5 3a.5.5 0 0 0 0 1H3v-.5a.5.5 0 0 0-.5-.5h-1z"/>
</svg>